<svg width="1440" height="320" viewBox="0 0 1440 320" fill="none" xmlns="http://www.w3.org/2000/svg">
<mask id="mask0" mask-type="alpha" maskUnits="userSpaceOnUse" x="-240" y="-277" width="1920" height="597">
<path d="M1680 -277H-240V222.925C-118.605 279.022 265.249 320 720 320C1174.75 320 1558.6 279.022 1680 222.925V-277Z" fill="#BCDEFF"/>
</mask>
<g mask="url(#mask0)">
<path d="M1680 -277H-240V319.563L1680 320V-277Z" fill="#E3F2FF"/>
<path opacity="0.2" d="M-169.54 215.984C-169.418 204.147 -160.682 194.167 -148.966 192.478L83.5755 158.954C98.0435 156.868 111 168.09 111 182.708V576.061C111 591.095 97.3351 602.428 82.5603 599.647L-153.234 555.262C-164.669 553.11 -172.913 543.064 -172.793 531.429L-169.54 215.984Z" fill="white"/>
</g>
</svg>
