<svg width="194" height="120" viewBox="0 0 194 120" fill="none" xmlns="http://www.w3.org/2000/svg">
<path d="M97 115C150.572 115 194 110.293 194 104.485C194 98.6783 150.572 93.9707 97 93.9707C43.4284 93.9707 0 98.6783 0 104.485C0 110.293 43.4284 115 97 115Z" fill="#BCDEFF"/>
<path d="M108.063 24.412V28.6872H103.817V26.8384C103.817 22.2166 100.129 18.5191 95.6589 18.5191L82.8075 18.6347C78.3375 18.6347 74.7614 22.4477 74.7614 27.0695V28.9183H70.6266V24.6431C70.6266 18.5191 75.3202 13.5506 81.243 13.5506L97.3352 13.4351C99.0114 13.4351 100.576 13.7817 102.029 14.475C105.605 16.3237 108.063 20.0212 108.063 24.412Z" fill="#2C74DF"/>
<path opacity="0.4" d="M82.9193 18.6346C78.4493 18.6346 74.8732 22.4477 74.8732 27.0695V28.9183H73.644C73.644 26.3762 73.9792 24.1809 75.432 22.101C78.2258 17.9414 82.9193 18.6346 82.9193 18.6346Z" fill="#084A8B"/>
<path d="M135.442 38.7393V92.6994C135.442 98.4767 130.972 103.099 125.385 103.099H53.417C51.8525 103.099 50.3997 102.752 49.1704 102.059C45.7062 100.441 43.3594 96.8591 43.3594 92.6994V38.7393C43.3594 32.9619 47.8294 28.3401 53.417 28.3401H125.273C130.861 28.3401 135.442 32.9619 135.442 38.7393Z" fill="white"/>
<path d="M135.331 77.9094H43.3594V84.8422H135.331V77.9094Z" fill="#91CAFF"/>
<path opacity="0.1" d="M49.1704 49.1384C48.7234 64.9683 49.1704 85.7666 49.1704 102.174C45.7061 100.557 43.3594 96.9746 43.3594 92.815V38.7393C43.3594 32.9619 47.8294 28.3401 53.417 28.3401C53.417 28.3401 49.6174 32.9619 49.1704 49.1384Z" fill="white"/>
<path d="M94.2061 51.2183H90.8536V47.752C90.8536 47.0587 90.2948 46.481 89.6243 46.481H87.054C86.3835 46.481 85.8248 47.0587 85.8248 47.752V51.2183H82.4722C81.8017 51.2183 81.243 51.7961 81.243 52.4894V55.1469C81.243 55.8402 81.8017 56.4179 82.4722 56.4179H85.8248V59.8843C85.8248 60.5776 86.3835 61.1553 87.054 61.1553H89.6243C90.2948 61.1553 90.8536 60.5776 90.8536 59.8843V56.4179H94.2061C94.8766 56.4179 95.4354 55.8402 95.4354 55.1469V52.4894C95.4354 51.7961 94.8766 51.2183 94.2061 51.2183Z" fill="#EC335E"/>
<path d="M94.2061 50.6407H90.8536V47.1743C90.8536 46.4811 90.2948 45.9033 89.6243 45.9033H87.054C86.3835 45.9033 85.8248 46.4811 85.8248 47.1743V50.6407H82.4722C81.8017 50.6407 81.243 51.2184 81.243 51.9117V54.5693C81.243 55.2626 81.8017 55.8403 82.4722 55.8403H85.8248V59.3067C85.8248 60 86.3835 60.5777 87.054 60.5777H89.6243C90.2948 60.5777 90.8536 60 90.8536 59.3067V55.8403H94.2061C94.8766 55.8403 95.4354 55.2626 95.4354 54.5693V51.9117C95.4354 51.2184 94.8766 50.6407 94.2061 50.6407Z" fill="#EC335E"/>
<path d="M90.7307 74.3945C100.455 73.6377 107.745 64.8734 107.013 54.819C106.281 44.7645 97.8042 37.2273 88.08 37.9841C78.3558 38.741 71.0662 47.5052 71.7981 57.5597C72.5301 67.6141 81.0065 75.1514 90.7307 74.3945Z" fill="white"/>
<path d="M149.076 47.29L162.71 77.4476C163.38 78.9497 163.38 80.6829 162.821 82.185L162.263 83.6871C161.816 84.9581 161.816 86.4602 162.374 87.6157L168.409 100.904C168.632 101.366 168.632 101.943 168.521 102.406C168.409 102.637 168.297 102.868 168.074 103.099C167.962 103.214 167.738 103.446 167.515 103.561C166.509 104.023 165.392 103.561 164.945 102.637L158.91 89.3489C158.351 88.0779 157.346 87.1535 156.005 86.6913L154.44 86.2291C152.876 85.767 151.646 84.6115 150.976 83.1094L137.342 52.9518C136.225 50.5253 137.23 47.7522 139.577 46.5967L143.041 44.8636C143.6 44.6325 144.159 44.4014 144.718 44.4014C146.506 44.5169 148.294 45.5568 149.076 47.29Z" fill="#FFB521"/>
<path opacity="0.9" d="M147.959 48.6766L161.257 77.9098C161.816 79.0652 161.816 80.3362 161.369 81.4917L160.922 82.6472C160.586 83.5715 160.586 84.727 161.033 85.6514L166.621 98.0148L163.939 99.2858L158.351 86.9224C157.904 85.998 157.122 85.3047 156.228 84.9581L155.111 84.6114C153.993 84.2648 152.987 83.3404 152.54 82.3005L139.018 52.9518C138.236 51.103 138.907 49.0232 140.695 48.2144L143.377 46.9434C145.053 46.1345 147.176 46.8278 147.959 48.6766Z" fill="white"/>
<path opacity="0.13" d="M143.37 48.4893L141.953 49.1755L164.66 99.2975L166.077 98.6113L143.37 48.4893Z" fill="#DD2D26"/>
<path d="M154.136 72.4768L152.719 73.1628L164.567 99.3225L165.984 98.6365L154.136 72.4768Z" fill="#F44D2C"/>
<path d="M166.956 97.7837L168.409 101.019C168.633 101.481 168.633 102.059 168.521 102.521C168.297 102.983 167.962 103.445 167.515 103.677C166.621 104.139 165.615 103.792 165.056 102.983C164.945 102.868 164.945 102.752 164.945 102.752L163.492 99.5169L166.956 97.7837Z" fill="#F44D2C"/>
<path d="M158.239 74.7903L151.758 77.9101C151.534 78.0256 151.199 77.9101 150.976 77.679L150.864 77.3323C150.752 77.1012 150.864 76.7546 151.087 76.5235L157.569 73.4037C157.792 73.2882 158.128 73.4037 158.351 73.6348L158.463 73.9815C158.686 74.2126 158.575 74.5592 158.239 74.7903Z" fill="#00C7E6"/>
<path d="M154.105 65.5464L147.623 68.6661C147.4 68.7817 147.064 68.6661 146.841 68.435L146.729 68.0884C146.617 67.8573 146.729 67.5107 146.953 67.2796L153.434 64.1598C153.658 64.0443 153.993 64.1598 154.216 64.3909L154.328 64.7376C154.44 65.0842 154.328 65.3153 154.105 65.5464Z" fill="#00C7E6"/>
<path d="M155.781 71.9014L151.199 74.0968C150.976 74.2124 150.752 74.0968 150.64 73.8657L150.529 73.6346C150.417 73.4035 150.529 73.1724 150.752 73.0569L155.334 70.8615C155.558 70.7459 155.781 70.8615 155.893 71.0926L156.005 71.3237C156.116 71.5548 156.005 71.7859 155.781 71.9014Z" fill="#00C7E6"/>
<path d="M154.44 68.8973L149.858 71.0926C149.635 71.2082 149.411 71.0926 149.299 70.8615L149.188 70.6305C149.076 70.3994 149.188 70.1683 149.411 70.0527L153.993 67.8573C154.216 67.7418 154.44 67.8573 154.552 68.0884L154.663 68.3195C154.775 68.5506 154.663 68.7817 154.44 68.8973Z" fill="#00C7E6"/>
<path d="M149.858 56.3027L143.377 59.4225C143.153 59.538 142.818 59.4225 142.594 59.1914L142.483 58.8448C142.371 58.6137 142.483 58.267 142.706 58.0359L149.188 54.9162C149.411 54.8006 149.746 54.9162 149.97 55.1473L150.082 55.4939C150.305 55.8406 150.193 56.1872 149.858 56.3027Z" fill="#00C7E6"/>
<path d="M151.646 62.6578L147.064 64.8532C146.841 64.9687 146.617 64.8532 146.506 64.6221L146.394 64.391C146.282 64.1599 146.394 63.9288 146.617 63.8132L151.199 61.6178C151.423 61.5023 151.646 61.6178 151.758 61.8489L151.87 62.08C151.87 62.3111 151.87 62.5422 151.646 62.6578Z" fill="#00C7E6"/>
<path d="M150.305 59.6536L145.724 61.849C145.5 61.9646 145.277 61.849 145.165 61.6179L145.053 61.3868C144.941 61.1557 145.053 60.9246 145.276 60.8091L149.858 58.6137C150.082 58.4981 150.305 58.6137 150.417 58.8448L150.529 59.0759C150.529 59.307 150.529 59.5381 150.305 59.6536Z" fill="#00C7E6"/>
<path d="M88.8404 108.876C91.8577 108.876 94.3163 106.334 94.3163 103.214C94.3163 101.943 93.981 100.788 93.3105 99.8635C92.3047 98.4769 90.7402 97.437 88.8404 97.437H82.4706H82.0236H81.5766H75.542C72.5248 97.437 70.0662 99.979 70.0662 103.099C70.0662 104.139 70.4015 105.179 70.8485 105.987C71.072 106.334 71.4072 106.796 71.7425 107.143C72.7483 108.183 74.0893 108.761 75.6538 108.761H81.6884H82.1354H82.5824L88.8404 108.876Z" fill="white"/>
<path d="M81.9137 108.876V106.911V97.5522H81.4667H75.4321C72.4148 97.5522 69.9563 100.094 69.9563 103.214C69.9563 104.254 70.2915 105.294 70.7386 106.103C70.9621 106.449 71.2973 106.911 71.6326 107.258C72.6383 108.298 73.9793 108.876 75.5439 108.876H81.5784H81.9137Z" fill="#FF5331"/>
<path d="M82.4724 108.876V106.796V97.437H81.9136H81.4666V106.912V108.876H81.9136H82.4724Z" fill="#BF331B"/>
<path d="M108.063 100.325C110.075 102.636 109.963 106.218 107.616 108.413C106.722 109.222 105.605 109.684 104.487 109.8C102.811 110.031 101.023 109.337 99.7938 107.951L95.5473 103.098L95.212 102.751L94.8768 102.405L90.8537 97.7827C88.8422 95.4718 88.954 91.8899 91.3007 89.6945C92.083 89.0012 92.977 88.539 93.871 88.3079C94.318 88.1924 94.765 88.1924 95.212 88.1924C96.6648 88.3079 98.0058 88.8857 99.0116 90.0411L103.035 94.663L103.37 95.0096L103.705 95.3563L108.063 100.325Z" fill="white"/>
<path d="M103.482 95.0105L102.029 96.2815L95.212 102.521L94.8768 102.174L90.8537 97.5525C88.8422 95.2416 88.954 91.6597 91.3007 89.4643C92.083 88.771 92.977 88.3088 93.871 88.0777C94.318 87.9622 94.765 87.9622 95.212 87.9622C96.6648 88.0777 98.0058 88.6554 99.0116 89.8109L103.035 94.4328L103.482 95.0105Z" fill="#00BEE0"/>
<path d="M103.817 95.3573L102.364 96.7439L95.659 102.983L95.3237 102.637L94.9885 102.29L101.805 95.9351L103.146 94.6641L103.482 95.0107L103.817 95.3573Z" fill="#00626C"/>
<path d="M99.2636 51.8555H93.5901V45.9893C93.5901 44.6857 92.6445 43.708 91.3837 43.708H86.971C85.7102 43.708 84.7646 44.6857 84.7646 45.9893V51.8555H79.0911C77.8303 51.8555 76.8847 52.8332 76.8847 54.1368V58.6994C76.8847 60.003 77.8303 60.9807 79.0911 60.9807H84.7646V66.8469C84.7646 68.1505 85.7102 69.1282 86.971 69.1282H91.3837C92.6445 69.1282 93.5901 68.1505 93.5901 66.8469V60.9807H99.2636C100.524 60.9807 101.47 60.003 101.47 58.6994V54.1368C101.47 52.8332 100.367 51.8555 99.2636 51.8555Z" fill="#F44D2C"/>
<path d="M39.001 67.7418V100.904C39.001 101.597 38.4423 102.175 37.7718 102.175H16.0921C15.9803 102.175 15.8686 102.175 15.7568 102.059C15.198 101.944 14.8628 101.366 14.8628 100.788V67.6262C14.8628 66.933 15.4215 66.3552 16.0921 66.3552H37.66C38.4423 66.4708 39.001 67.0485 39.001 67.7418Z" fill="#B0B6BB"/>
<path d="M32.8547 99.1705C35.0148 99.1705 36.766 97.3599 36.766 95.1264C36.766 92.8929 35.0148 91.0823 32.8547 91.0823C30.6945 91.0823 28.9434 92.8929 28.9434 95.1264C28.9434 97.3599 30.6945 99.1705 32.8547 99.1705Z" fill="#DEE1DD"/>
<path d="M32.8546 98.1305C34.4593 98.1305 35.7602 96.7855 35.7602 95.1263C35.7602 93.4671 34.4593 92.1221 32.8546 92.1221C31.2499 92.1221 29.9491 93.4671 29.9491 95.1263C29.9491 96.7855 31.2499 98.1305 32.8546 98.1305Z" fill="#3A83E1"/>
<path d="M34.9779 93.1622C34.4192 92.5844 33.6369 92.2378 32.8546 92.2378C31.2901 92.2378 29.9491 93.6243 29.9491 95.242C29.9491 96.0508 30.1726 96.7441 30.7314 97.3218L31.4019 96.6285C31.0666 96.2819 30.8431 95.7042 30.8431 95.242C30.8431 94.0865 31.7371 93.1622 32.8546 93.1622C33.4134 93.1622 33.8604 93.3933 34.3074 93.7399L34.9779 93.1622Z" fill="#8AB7F0"/>
<path d="M20.8973 88.3092C23.0574 88.3092 24.8085 86.4986 24.8085 84.2651C24.8085 82.0316 23.0574 80.2209 20.8973 80.2209C18.7371 80.2209 16.986 82.0316 16.986 84.2651C16.986 86.4986 18.7371 88.3092 20.8973 88.3092Z" fill="#DEE1DD"/>
<path d="M20.8972 87.2691C22.5019 87.2691 23.8028 85.9241 23.8028 84.2649C23.8028 82.6058 22.5019 81.2607 20.8972 81.2607C19.2926 81.2607 17.9917 82.6058 17.9917 84.2649C17.9917 85.9241 19.2926 87.2691 20.8972 87.2691Z" fill="#3A83E1"/>
<path d="M23.0205 82.3008C22.4617 81.7231 21.6795 81.3765 20.8972 81.3765C19.3327 81.3765 17.9917 82.763 17.9917 84.3807C17.9917 85.1895 18.2152 85.8828 18.774 86.4605L19.4445 85.7672C19.1092 85.4206 18.8857 84.8429 18.8857 84.3807C18.8857 83.2252 19.7797 82.3008 20.8972 82.3008C21.456 82.3008 21.903 82.5319 22.35 82.8786L23.0205 82.3008Z" fill="#8AB7F0"/>
<path d="M32.8547 88.3092C35.0148 88.3092 36.766 86.4986 36.766 84.2651C36.766 82.0316 35.0148 80.2209 32.8547 80.2209C30.6945 80.2209 28.9434 82.0316 28.9434 84.2651C28.9434 86.4986 30.6945 88.3092 32.8547 88.3092Z" fill="#DEE1DD"/>
<path d="M32.8546 87.2691C34.4593 87.2691 35.7602 85.9241 35.7602 84.2649C35.7602 82.6058 34.4593 81.2607 32.8546 81.2607C31.2499 81.2607 29.9491 82.6058 29.9491 84.2649C29.9491 85.9241 31.2499 87.2691 32.8546 87.2691Z" fill="#3A83E1"/>
<path d="M34.9779 82.3008C34.4192 81.7231 33.6369 81.3765 32.8546 81.3765C31.2901 81.3765 29.9491 82.763 29.9491 84.3807C29.9491 85.1895 30.1726 85.8828 30.7314 86.4605L31.4019 85.7672C31.0666 85.4206 30.8431 84.8429 30.8431 84.3807C30.8431 83.2252 31.7371 82.3008 32.8546 82.3008C33.4134 82.3008 33.8604 82.5319 34.3074 82.8786L34.9779 82.3008Z" fill="#8AB7F0"/>
<path d="M20.8973 99.1705C23.0574 99.1705 24.8085 97.3599 24.8085 95.1264C24.8085 92.8929 23.0574 91.0823 20.8973 91.0823C18.7371 91.0823 16.986 92.8929 16.986 95.1264C16.986 97.3599 18.7371 99.1705 20.8973 99.1705Z" fill="#DEE1DD"/>
<path d="M20.8972 98.1305C22.5019 98.1305 23.8028 96.7855 23.8028 95.1263C23.8028 93.4671 22.5019 92.1221 20.8972 92.1221C19.2926 92.1221 17.9917 93.4671 17.9917 95.1263C17.9917 96.7855 19.2926 98.1305 20.8972 98.1305Z" fill="#3A83E1"/>
<path d="M23.0205 93.1622C22.4617 92.5844 21.6795 92.2378 20.8972 92.2378C19.3327 92.2378 17.9917 93.6243 17.9917 95.242C17.9917 96.0508 18.2152 96.7441 18.774 97.3218L19.4445 96.6285C19.1092 96.2819 18.8857 95.7042 18.8857 95.242C18.8857 94.0865 19.7797 93.1622 20.8972 93.1622C21.456 93.1622 21.903 93.3933 22.35 93.7399L23.0205 93.1622Z" fill="#8AB7F0"/>
<path d="M20.8973 77.5633C23.0574 77.5633 24.8085 75.7527 24.8085 73.5192C24.8085 71.2857 23.0574 69.4751 20.8973 69.4751C18.7371 69.4751 16.986 71.2857 16.986 73.5192C16.986 75.7527 18.7371 77.5633 20.8973 77.5633Z" fill="#DEE1DD"/>
<path d="M20.8972 76.5233C22.5019 76.5233 23.8028 75.1783 23.8028 73.5191C23.8028 71.8599 22.5019 70.5149 20.8972 70.5149C19.2926 70.5149 17.9917 71.8599 17.9917 73.5191C17.9917 75.1783 19.2926 76.5233 20.8972 76.5233Z" fill="#3A83E1"/>
<path d="M23.0205 71.4393C22.4617 70.8615 21.6795 70.5149 20.8972 70.5149C19.3327 70.5149 17.9917 71.9015 17.9917 73.5191C17.9917 74.3279 18.2152 75.0212 18.774 75.5989L19.4445 74.9056C19.1092 74.559 18.8857 73.9813 18.8857 73.5191C18.8857 72.3636 19.7797 71.4393 20.8972 71.4393C21.456 71.4393 21.903 71.6704 22.35 72.017L23.0205 71.4393Z" fill="#8AB7F0"/>
<path d="M32.8547 77.5633C35.0148 77.5633 36.766 75.7527 36.766 73.5192C36.766 71.2857 35.0148 69.4751 32.8547 69.4751C30.6945 69.4751 28.9434 71.2857 28.9434 73.5192C28.9434 75.7527 30.6945 77.5633 32.8547 77.5633Z" fill="#DEE1DD"/>
<path d="M32.8546 76.5233C34.4593 76.5233 35.7602 75.1783 35.7602 73.5191C35.7602 71.8599 34.4593 70.5149 32.8546 70.5149C31.2499 70.5149 29.9491 71.8599 29.9491 73.5191C29.9491 75.1783 31.2499 76.5233 32.8546 76.5233Z" fill="#3A83E1"/>
<path d="M34.9779 71.4393C34.4192 70.8615 33.6369 70.5149 32.8546 70.5149C31.2901 70.5149 29.9491 71.9015 29.9491 73.5191C29.9491 74.3279 30.1726 75.0212 30.7314 75.5989L31.4019 74.9056C31.0666 74.559 30.8431 73.9813 30.8431 73.5191C30.8431 72.3636 31.7371 71.4393 32.8546 71.4393C33.4134 71.4393 33.8604 71.6704 34.3074 72.017L34.9779 71.4393Z" fill="#8AB7F0"/>
<path d="M27.9377 70.0529V98.4772C27.9377 99.0549 27.4907 99.5171 26.9319 99.5171C26.3731 99.5171 25.9261 99.0549 25.9261 98.4772V70.0529C25.9261 69.4751 26.3731 69.0129 26.9319 69.0129C27.4907 69.0129 27.9377 69.4751 27.9377 70.0529Z" fill="#D5D8DB"/>
<path d="M46.2649 43.5924V87.0379H33.5253V43.5924C33.5253 43.2458 33.8605 42.8992 34.1958 42.8992H45.7061C46.0414 42.8992 46.2649 43.2458 46.2649 43.5924Z" fill="#1983FF"/>
<path d="M43.1358 39.0862H36.766V42.8992H43.1358V39.0862Z" fill="#BDF1FF"/>
<path d="M37.66 39.086L38.554 25.4516C38.554 24.6427 39.2245 23.9495 40.0068 23.9495C40.7891 23.9495 41.4596 24.6427 41.4596 25.4516L42.1301 39.086H37.66Z" fill="#1982FF"/>
<path d="M46.2649 68.4348H33.5253V87.0378H46.2649V68.4348Z" fill="#BDF1FF"/>
<path d="M46.2649 68.4348H33.5253V72.5945H46.2649V68.4348Z" fill="#365FB1"/>
<path d="M43.2476 52.374H36.6543V53.1828H43.2476V52.374Z" fill="#82C2FF"/>
<path d="M41.0126 55.9561H36.6543V56.7649H41.0126V55.9561Z" fill="#90C1FF"/>
<path d="M41.0126 59.5378H36.6543V60.3467H41.0126V59.5378Z" fill="#90C1FF"/>
<path d="M41.0126 63.1199H36.6543V63.9288H41.0126V63.1199Z" fill="#90C1FD"/>
<path d="M41.0126 70.1682H36.6543V70.9771H41.0126V70.1682Z" fill="#9CB0DA"/>
<path d="M41.0126 73.6345H36.6543V74.4434H41.0126V73.6345Z" fill="#EBFBFF"/>
<path d="M41.0126 77.2166H36.6543V78.0254H41.0126V77.2166Z" fill="#EBFBFF"/>
<path d="M43.1358 66.4705H36.6543V67.2793H43.1358V66.4705Z" fill="#90C1FD"/>
<path d="M43.1358 80.7983H36.6543V81.6072H43.1358V80.7983Z" fill="#EBFBFF"/>
<path d="M40.0069 24.4118C39.7834 24.4118 39.6716 24.2963 39.6716 24.1807V5.23109C39.6716 5.11555 39.7834 5 39.8951 5H40.0069C40.1186 5 40.2304 5.11555 40.2304 5.23109V24.1807C40.1186 24.2963 40.1186 24.4118 40.0069 24.4118Z" fill="#BDF1FF"/>
<path d="M49.0586 87.1534V89.3488C49.0586 89.4643 48.9469 89.4643 48.9469 89.4643H31.0667C30.955 89.4643 30.955 89.3488 30.955 89.3488V87.1534C30.955 87.0378 31.0667 87.0378 31.0667 87.0378H48.9469L49.0586 87.1534Z" fill="#6CD7EF"/>
<path d="M42.5771 89.5801H37.3247V101.366H42.5771V89.5801Z" fill="#C2F6FF"/>
<path d="M42.5771 89.5801H37.3247V91.5443H42.5771V89.5801Z" fill="#9EC9D8"/>
<path d="M46.2648 103.792H33.637V103.33C33.637 102.174 34.531 101.25 35.6485 101.25H44.2533C45.3708 101.25 46.2648 102.174 46.2648 103.33V103.792Z" fill="#6CD7EF"/>
<path d="M154.217 74.6741V102.636C154.217 104.485 152.764 105.872 151.088 105.872H128.067C127.843 105.872 127.508 105.872 127.285 105.756C125.944 105.409 124.938 104.138 124.938 102.636V74.5586H154.217V74.6741Z" fill="#FE921D"/>
<path d="M148.852 98.939H130.19C128.961 98.939 127.955 97.899 127.955 96.628V83.8024C127.955 82.5314 128.961 81.4915 130.19 81.4915H148.852C150.082 81.4915 151.088 82.5314 151.088 83.8024V96.628C151.088 97.899 150.082 98.939 148.852 98.939Z" fill="white"/>
<path opacity="0.1" d="M128.626 74.6743V105.872H127.285C125.944 105.525 124.938 104.254 124.938 102.752V74.6743H128.626Z" fill="white"/>
<path d="M133.543 87.731L134.213 89.8108C134.325 90.1574 134.437 90.504 134.548 90.7351C134.66 90.3885 134.772 90.1574 134.884 89.8108L135.554 87.731H136.225L134.772 91.5439H134.101L132.76 87.731H133.543Z" fill="#FFA046"/>
<path d="M137.566 86.6909C137.566 86.922 137.454 87.1531 137.119 87.1531C136.895 87.1531 136.672 86.922 136.672 86.6909C136.672 86.4598 136.895 86.2288 137.119 86.2288C137.454 86.2288 137.566 86.4598 137.566 86.6909ZM136.895 91.5439V87.7309H137.566V91.5439H136.895Z" fill="#FFA046"/>
<path d="M139.465 86.6909V87.7308H140.471V88.3086H139.465V90.3884C139.465 90.8506 139.577 91.0817 139.912 91.0817C140.136 91.0817 140.248 91.0817 140.248 91.0817V91.5438C140.136 91.5438 139.912 91.6594 139.689 91.6594C139.354 91.6594 139.13 91.5439 139.018 91.4283C138.795 91.1972 138.795 90.8506 138.795 90.3884V88.3086H138.236V87.7308H138.795V86.8065L139.465 86.6909Z" fill="#FFA046"/>
<path d="M146.282 91.3129C146.059 91.4285 145.612 91.544 144.941 91.544C143.488 91.544 142.483 90.6196 142.483 88.8864C142.483 87.2688 143.6 86.1133 145.165 86.1133C145.835 86.1133 146.17 86.2288 146.394 86.3444L146.282 86.9221C146.059 86.8066 145.723 86.691 145.276 86.691C144.047 86.691 143.265 87.4999 143.265 88.8864C143.265 90.1574 143.935 90.9663 145.165 90.9663C145.612 90.9663 145.947 90.8507 146.282 90.7352V91.3129Z" fill="#FFA046"/>
<path d="M147.959 93.6238H131.196V94.4326H147.959V93.6238Z" fill="#FFA046"/>
<path d="M156.116 74.6743H123.038C122.479 74.6743 122.032 74.2121 122.032 73.6344C122.032 73.0567 122.479 72.5945 123.038 72.5945H156.116C156.675 72.5945 157.122 73.0567 157.122 73.6344C157.01 74.2121 156.563 74.6743 156.116 74.6743Z" fill="#284A75"/>
<path d="M154.328 72.71H124.826V70.5146C124.826 66.7016 127.843 63.5818 131.531 63.5818H147.623C151.311 63.5818 154.328 66.7016 154.328 70.5146V72.71Z" fill="#2C74DF"/>
<path d="M128.849 71.3234C128.402 71.3234 128.178 70.9768 128.178 70.6301V67.1637C128.178 66.7016 128.514 66.4705 128.849 66.4705C129.296 66.4705 129.52 66.8171 129.52 67.1637V70.6301C129.52 70.9768 129.184 71.3234 128.849 71.3234Z" fill="#284A75"/>
<path d="M133.095 71.3234C132.648 71.3234 132.425 70.9768 132.425 70.6301V67.1637C132.425 66.7016 132.76 66.4705 133.095 66.4705C133.542 66.4705 133.766 66.8171 133.766 67.1637V70.6301C133.878 70.9768 133.542 71.3234 133.095 71.3234Z" fill="#284A75"/>
<path d="M137.342 71.3234C136.895 71.3234 136.672 70.9768 136.672 70.6301V67.1637C136.672 66.7016 137.007 66.4705 137.342 66.4705C137.789 66.4705 138.013 66.8171 138.013 67.1637V70.6301C138.124 70.9768 137.789 71.3234 137.342 71.3234Z" fill="#284A75"/>
<path d="M141.7 71.3234C141.253 71.3234 141.03 70.9768 141.03 70.6301V67.1637C141.03 66.7016 141.365 66.4705 141.7 66.4705C142.147 66.4705 142.371 66.8171 142.371 67.1637V70.6301C142.371 70.9768 142.036 71.3234 141.7 71.3234Z" fill="#284A75"/>
<path d="M145.947 71.3234C145.5 71.3234 145.276 70.9768 145.276 70.6301V67.1637C145.276 66.7016 145.612 66.4705 145.947 66.4705C146.394 66.4705 146.617 66.8171 146.617 67.1637V70.6301C146.729 70.9768 146.394 71.3234 145.947 71.3234Z" fill="#284A75"/>
<path d="M150.305 71.3234C149.858 71.3234 149.635 70.9768 149.635 70.6301V67.1637C149.635 66.7016 149.97 66.4705 150.305 66.4705C150.752 66.4705 150.976 66.8171 150.976 67.1637V70.6301C150.976 70.9768 150.64 71.3234 150.305 71.3234Z" fill="#284A75"/>
<path opacity="0.1" d="M35.7603 42.8992V89.4643H30.8433V87.1534C30.8433 87.0379 30.955 87.0379 30.955 87.0379H33.5253V43.5924C33.5253 43.2458 33.8605 42.8992 34.1958 42.8992H35.7603Z" fill="white"/>
<path opacity="0.1" d="M18.1036 66.4707V102.175H15.7568C15.198 102.059 14.8628 101.481 14.8628 100.903V67.7417C14.8628 67.0484 15.4215 66.4707 16.092 66.4707H18.1036Z" fill="white"/>
</svg>
